# xmcd
#
# Track frame offsets:
#	150
#	18970
#	37800
#	55162
#	72102
#	93875
#	114810
#	132255
#	151410
#	169115
#
# Disc length: 2496 seconds
#
# Revision: 0
# Processed by: cddbd v1.5.2PL0 Copyright (c) Steve Scherf et al.
# Submitted via: EasyCDDAExtractor 15.3.0.1
#
DISCID=6e09be0a
DTITLE=Luis Angel - Señales De Vida
DYEAR=1990
DGENRE=Latin
TTITLE0=Flor Dormida
TTITLE1=Fantasia Herida
TTITLE2=De Vuelta En La Trampa
TTITLE3=Si Volviera A Nacer
TTITLE4=Amarte A Ti
TTITLE5=Manos De Seda
TTITLE6=Hemos
TTITLE7=El Tren Se Nos Va
TTITLE8=Que Puedo Hacer Yo
TTITLE9=Me Guardo El Corazon
EXTD=
EXTT0=
EXTT1=
EXTT2=
EXTT3=
EXTT4=
EXTT5=
EXTT6=
EXTT7=
EXTT8=
EXTT9=
PLAYORDER=
